<svg width="100" height="100" viewBox="0 0 100 100" fill="none" xmlns="http://www.w3.org/2000/svg">
  <g transform="translate(11.133679 11.054922) scale(0.984456)">

<path d="M50.1078 75.4831C50.8747 75.9858 51.7299 75.9578 52.5917 75.9548C55.9788 75.9428 59.3671 75.891 62.7527 75.9659C66.3702 76.0459 69.0657 73.6961 69.0726 69.4146C69.084 62.2569 69.1228 55.0987 69.0489 47.9419C69.0247 45.5925 69.3283 44.8381 71.5622 45.1187C73.4911 45.361 74.9227 44.2202 75.5569 42.5461C76.2185 40.7996 76.2367 38.8357 74.9366 37.2138C74.3956 36.5389 73.7444 35.9582 73.14 35.3382C63.3553 25.3014 53.5726 15.2627 43.7836 5.23055C40.8839 2.25883 38.3682 2.25381 35.4326 5.23153C26.6193 14.1715 17.8204 23.1266 9.00715 32.0666C7.60134 33.4927 6.16835 34.8914 4.71562 36.2663C2.90331 37.9815 2.63523 40.1234 3.40625 42.3246C4.16171 44.4814 5.9503 45.2494 8.10733 45.1408C9.68933 45.0612 10.4007 45.8729 10.3669 47.4748C10.2159 54.6316 10.5365 61.7885 10.1838 68.9501C9.94955 73.7071 11.9097 76.0545 16.4613 75.9173C20.6012 75.7925 24.8042 75.5668 28.8745 75.7071C35.0527 75.9201 41.2287 75.6668 47.3987 75.935C48.237 75.9714 49.1537 76.2056 49.8819 75.4831" stroke="black" stroke-width="4" stroke-linecap="round" stroke-linejoin="round"/>
<path d="M50.7386 76.1594C50.7386 69.2517 50.6553 62.3427 50.7633 55.4369C50.8606 49.2118 45.3583 44.8647 40.7944 45.0032C37.6221 45.0995 34.6834 45.3814 32.2384 47.7222C29.9965 49.8685 29.0192 52.5691 29.0104 55.6775C28.9912 62.5047 29.0045 69.3321 29.0045 76.1594" stroke="black" stroke-width="4" stroke-linecap="round" stroke-linejoin="round"/>

  </g>
</svg>
