<svg width="100" height="100" viewBox="0 0 100 100" fill="none" xmlns="http://www.w3.org/2000/svg">
  <g transform="translate(-2.476190 0.000000) scale(0.952381)">

<path d="M49.1173 80.4693C42.9168 73.0607 37.6256 65.1138 33.7699 55.9703C28.6552 43.8412 29.6178 31.5242 36.7764 22.459C43.7422 13.6378 52.4614 10.4799 62.3915 14.1922C72.3881 17.9293 78.0066 26.3007 79.4242 38.2391C80.4063 46.51 77.6493 53.7151 74.2554 60.6619C70.3916 68.5705 65.3444 75.4652 59.8023 81.8934C56.0991 86.1888 53.9973 86.1484 50.2983 81.8669C49.9327 81.4438 49.5754 81.0111 49.1173 80.4693ZM53.9672 81.3765C55.1635 82.3864 56.042 81.5926 56.8636 80.6729C63.5984 73.1335 69.4884 64.8449 73.6152 55.0989C76.7413 47.716 78.0509 40.0865 75.2501 32.083C70.6732 19.0041 57.5604 12.454 46.8624 17.9584C35.902 23.5979 30.8321 36.525 34.662 49.5623C38.3638 62.1637 45.6497 72.0157 53.9672 81.3765Z" fill="black"/>
<path d="M71.26 89.584C60.6961 93.1588 50.2521 93.2232 39.7927 89.8863C38.4732 89.4653 37.2236 88.8179 36.0721 87.9635C33.0908 85.7511 33.0366 82.0747 36.0043 79.7974C37.9717 78.2878 40.223 77.5369 42.5321 77.003C43.4139 76.7991 44.1481 76.9781 44.3924 78.0445C44.6536 79.1848 43.8924 79.6506 43.1254 79.9332C42.0142 80.3427 40.8271 80.5248 39.7617 81.0435C38.5044 81.6556 36.5748 81.9202 36.6419 83.8604C36.7005 85.5515 38.4621 85.9538 39.7209 86.5225C42.4049 87.7351 45.2524 88.3482 48.0762 88.5646C54.8215 89.0816 61.5901 89.2969 68.2348 87.335C69.751 86.8874 71.2296 86.3035 72.5355 85.2925C74.0428 84.1255 74.0206 83.2947 72.454 82.1536C71.0112 81.1028 69.3896 80.533 67.7397 80.0967C66.7108 79.8246 65.7042 79.4471 65.9792 77.99C66.2847 76.3705 67.4401 76.8674 68.366 77.1275C70.1347 77.6245 71.8813 78.2264 73.4825 79.2472C77.309 81.6865 77.3937 85.5672 73.6695 88.2361C72.9586 88.7455 72.1601 89.0951 71.26 89.584Z" fill="black"/>
<path d="M48.7752 58.3369C44.3212 56.2921 43.3678 50.7275 46.7485 46.9045C47.7648 45.7554 48.698 44.5849 49.5502 43.2634C52.3589 38.9083 58.0814 39.0566 60.6726 43.562C61.5865 45.1512 62.9055 46.2416 63.9168 47.6857C66.7058 51.6679 65.3252 57.0884 61.1851 58.3973C60.149 58.7248 59.1297 58.6537 58.1165 58.2885C56.0762 57.5533 54.0372 57.5027 51.9949 58.2817C50.9844 58.6672 49.9604 58.7267 48.7752 58.3369ZM62.4608 50.7628C60.8817 48.6307 59.4118 46.3737 57.6898 44.4047C56.2356 42.7418 53.2218 42.8468 52.0399 44.6288C50.8264 46.4586 49.5508 48.1824 48.1751 49.8499C47.2178 51.0102 47.0853 52.551 47.9143 53.9626C48.6131 55.1525 49.6428 55.9446 50.9008 55.4355C53.6417 54.3261 56.3019 54.5262 59.1012 55.2468C61.6159 55.8941 62.9225 54.105 62.4608 50.7628Z" fill="black"/>
<path d="M62.2778 38.124C60.8631 39.7475 59.3327 40.3488 57.5938 39.401C55.8583 38.4551 55.4107 36.6044 55.3582 34.5926C55.343 34.0102 55.4273 33.4112 55.5418 32.8397C56.2191 29.4609 58.2179 27.5985 60.4907 28.1975C62.7741 28.7993 64.1031 31.7689 63.5358 34.9787C63.3405 36.0834 62.995 37.1059 62.2778 38.124ZM61.0876 33.3306C60.9168 32.4574 60.7889 31.4828 59.7807 31.4393C58.8372 31.3986 58.4607 32.1897 58.2522 33.1112C57.974 34.3405 57.5313 35.8195 58.9413 36.3321C60.455 36.8825 60.6261 35.2341 60.9827 34.0817C61.0255 33.9434 61.0453 33.7959 61.0876 33.3306Z" fill="black"/>
<path d="M47.6177 37.9429C46.2369 35.6968 46.0167 33.4091 46.8131 31.0418C47.874 27.8884 51.1234 27.1617 53.1364 29.609C54.4653 31.2245 54.8919 33.2645 54.6765 35.3753C54.48 37.3012 53.6126 38.9082 51.8981 39.589C50.2138 40.2579 48.8771 39.4149 47.6177 37.9429ZM52.1091 34.8292C52.0642 33.2636 52.0677 31.5421 50.2 31.4874C49.3118 31.4614 48.9922 32.5201 49.009 33.4466C49.0307 34.6485 49.2715 35.8646 50.3508 36.3924C51.3082 36.8607 51.7416 36.0543 52.1091 34.8292Z" fill="black"/>
<path d="M66.1175 35.9507C68.891 36.3827 70.1896 38.1515 70.0251 41.0581C69.8611 43.9552 67.7289 46.5472 65.4883 46.5342C64.1578 46.5265 63.0249 45.9598 62.4707 44.5238C61.6302 42.3459 61.7447 40.1621 62.935 38.1758C63.6514 36.9803 64.6669 36.1765 66.1175 35.9507ZM64.6503 42.395C64.9176 43.1862 65.3537 43.7476 66.1133 43.2193C67.0124 42.5941 67.35 41.5227 67.3769 40.3737C67.3918 39.7392 67.0396 39.1642 66.4579 39.1355C65.5191 39.0891 65.1218 39.8907 64.8825 40.7897C64.7701 41.2119 64.7118 41.6529 64.6503 42.395Z" fill="black"/>
<path d="M40.5886 43.1359C40.2605 42.1247 40.0751 41.2696 40.1375 40.3537C40.2986 37.9898 41.4258 36.3631 43.1761 36.006C44.8346 35.6677 46.6398 36.8283 47.4284 38.8088C47.6954 39.4792 47.8788 40.2054 48.0199 40.9267C48.4354 43.0509 47.6285 45.1628 46.079 46.0559C44.3446 47.0556 42.921 46.3118 41.6701 44.9182C41.2595 44.4607 40.9831 43.8459 40.5886 43.1359ZM45.44 41.4829C45.3654 41.2004 45.284 40.9199 45.2174 40.6349C45.0115 39.7539 44.5279 39.1344 43.724 39.2092C43.0534 39.2715 42.7475 39.9961 42.8124 40.6831C42.9103 41.7175 43.1684 42.7965 44.1902 43.1224C45.0945 43.4109 45.5064 42.8152 45.44 41.4829Z" fill="black"/>

  </g>
</svg>
