<svg width="100" height="100" viewBox="0 0 100 100" fill="none" xmlns="http://www.w3.org/2000/svg">
  <g transform="translate(0.177778 0.475817) scale(0.993464)">

<path d="M59.3748 87.9851C48.595 87.9916 38.0383 88.0034 27.4817 88.0059C21.755 88.0072 19.3239 85.1612 19.8769 78.9911C21.1056 65.2819 27.7189 55.866 39.5077 50.6155C39.9799 50.4052 40.4466 50.1808 41.3172 49.7768C34.2119 44.8951 30.684 38.2229 31.609 29.3325C32.1527 24.1077 34.4462 19.7395 38.2035 16.3895C46.3574 9.11946 57.9915 10.3858 64.6138 19.2966C70.7964 27.6158 70.9467 41.2278 59.1583 49.6227C59.309 50.4336 60.0354 50.3759 60.5257 50.5945C72.1115 55.7589 78.76 65.0045 80.3743 78.4078C81.1293 84.6768 78.388 88.0048 72.5336 87.998C68.2218 87.9929 63.9099 87.9903 59.3748 87.9851ZM35.6648 56.4232C28.0739 62.098 23.5627 69.7422 22.9427 79.7923C22.7259 83.3068 23.8287 84.4612 27.0632 84.4638C42.389 84.4758 57.7147 84.4772 73.0404 84.4704C76.0885 84.4691 77.0231 83.461 77.0465 80.1857C77.0528 79.3081 76.992 78.4242 76.8928 77.5524C74.6369 57.7301 53.7084 44.7835 35.6648 56.4232ZM37.5403 22.4147C35.1455 26.4716 33.8517 30.742 35.0028 35.6225C36.9456 43.8594 43.814 49.2196 51.6039 48.4706C58.9596 47.7634 64.9408 40.9865 65.4725 32.7572C65.9205 25.8222 61.7681 18.955 55.5544 16.3548C49.0997 13.6537 42.1732 15.8914 37.5403 22.4147Z" fill="black"/>

  </g>
</svg>
