<svg width="100" height="100" viewBox="0 0 100 100" fill="none" xmlns="http://www.w3.org/2000/svg">
  <g transform="translate(-1.351351 -1.300000) scale(1.027027)">

<path d="M43.4757 83.2694C40.233 87.492 36.0472 87.1143 31.7989 86.3439C30.7631 86.156 29.7225 85.6332 29.1657 84.6888C28.2995 83.2198 27.086 83.0265 25.6834 83.1742C20.6573 83.7036 18.2826 79.8001 18.3883 75.4514C18.5684 68.0401 18.4066 60.62 18.4437 53.2039C18.4501 51.9228 18.2716 51.2513 16.8522 51.0015C14.808 50.6418 13.5248 49.0821 13.112 46.9272C12.6993 44.7727 13.4471 42.9825 15.031 41.5808C21.0984 36.2112 27.1614 30.836 33.2325 25.4711C37.1387 22.0193 41.0525 18.5771 44.9698 15.1395C48.2169 12.29 51.5754 12.2925 54.7862 15.1131C64.5038 23.6501 74.2239 32.184 83.9457 40.7156C84.9881 41.6303 86.0178 42.5398 86.5605 43.9226C87.7583 46.9748 86.1638 50.5194 83.1214 51.016C81.5593 51.271 81.4459 52.0689 81.4503 53.3713C81.4763 60.9827 81.465 68.5942 81.4575 76.2057C81.4531 80.7369 79.1606 83.2046 74.8695 83.1443C73.036 83.1186 71.5611 83.3198 70.1955 85.0099C68.5621 87.0316 65.946 86.935 63.6688 86.8251C61.2495 86.7084 58.7468 86.2928 57.2008 83.796C56.8275 83.1931 56.1655 83.1749 55.5383 83.1778C51.5626 83.1964 47.5868 83.2113 43.4757 83.2694ZM73.8802 80.5181C77.6962 80.5439 78.721 79.4818 78.7205 75.5235C78.7194 67.647 78.7161 59.7705 78.729 51.8941C78.734 48.8781 78.8743 48.7308 81.6635 48.5118C82.7022 48.4303 83.6494 48.1223 84.0376 47.0076C84.4553 45.8082 84.2156 44.6978 83.2528 43.8353C82.925 43.5416 82.6071 43.2353 82.2764 42.9454C72.6363 34.4979 62.9977 26.0485 53.3525 17.6076C50.7657 15.3437 49.1463 15.3155 46.5017 17.5854C43.2628 20.3654 40.0674 23.2027 36.8623 26.0269C30.2635 31.8418 23.6687 37.6617 17.0779 43.4869C16.1384 44.3173 15.4482 45.2853 15.8848 46.6992C16.2872 48.0022 17.2227 48.4471 18.4327 48.513C21.116 48.6592 21.1518 48.7066 21.1536 51.5974C21.1588 59.7994 21.1468 68.0014 21.1635 76.2033C21.1686 78.6861 22.372 80.2768 24.3747 80.4084C25.3877 80.475 26.4131 80.3275 27.5313 80.2719C27.9331 75.982 30.4473 73.7926 34.0754 72.8157C33.5275 70.834 33.0914 69.3416 30.8421 69.2964C29.2442 69.2643 28.1736 67.8239 27.4619 66.3019C26.6149 64.4906 26.4235 62.5888 26.8378 60.6059C28.2145 54.0171 30.6174 48.3208 37.5247 46.4238C38.0299 46.2851 38.457 45.8216 38.9176 45.5047C44.9446 41.358 51.2704 40.3289 57.9357 43.5901C60.4726 44.8314 62.6834 46.7552 65.43 47.6033C66.1478 47.825 66.7787 48.4911 67.3627 49.0547C70.9906 52.556 72.7891 57.0316 73.2415 62.1231C73.5589 65.695 71.6229 69.1216 68.9013 69.2896C66.5767 69.433 66.3812 70.9671 65.7978 72.8291C69.3204 73.7444 71.5808 75.9531 72.2627 79.7512C72.401 80.5212 73.0211 80.4809 73.8802 80.5181ZM65.9452 65.552C68.0943 67.8692 69.9679 66.5902 70.4504 63.8251C70.5931 63.0074 70.6276 62.1198 70.4939 61.3046C69.9044 57.7113 68.5965 54.4577 66.2356 51.7416C65.2593 50.6185 64.1388 49.6584 62.7275 49.3661C61.4704 49.1058 60.4825 48.4463 59.4604 47.7188C53.3026 43.3357 46.0082 43.5185 40.1021 48.1739C39.3554 48.7626 38.6186 49.232 37.6177 49.2585C36.6941 49.2829 35.8452 49.7784 35.1153 50.3868C31.4522 53.44 29.7952 57.5831 29.5602 62.4016C29.4306 65.0587 30.2817 66.5441 31.7586 66.7982C33.1408 67.0361 34.4066 65.6132 34.9069 63.113C35.2755 61.2709 35.507 59.3982 35.8463 57.5489C35.9999 56.7119 36.442 56.0654 37.3606 56.2224C38.148 56.3569 38.5145 56.9767 38.4229 57.7875C38.0527 61.0621 38.0204 64.4528 36.0959 67.2747C35.5465 68.0802 35.5147 68.757 35.8404 69.6102C36.5242 71.4015 37.5368 72.6276 39.2616 73.6243C42.1263 75.2796 44.8444 77.09 48.2118 77.2725C51.5471 77.4533 54.854 77.3115 57.8099 75.4536C59.0685 74.6626 60.2397 73.7458 61.6043 73.1163C63.8095 72.099 64.7083 68.7801 63.4799 66.6055C61.9118 63.8295 61.8467 60.6589 61.4271 57.5893C61.3204 56.8082 61.7668 56.178 62.538 56.0445C63.3654 55.9012 63.7791 56.4782 63.9332 57.2538C64.059 57.8871 64.1039 58.5385 64.186 59.1816C64.4571 61.3066 64.6898 63.4428 65.9452 65.552ZM30.3841 79.5062C30.3298 82.546 31.0419 83.287 33.6912 83.7391C35.1198 83.9829 36.4538 83.7919 37.8435 83.6985C39.2949 83.6009 40.3019 83.0229 40.8538 81.6068C41.4652 80.038 41.0856 78.5704 40.0368 77.4645C36.8146 74.0669 31.2076 75.5318 30.3841 79.5062ZM59.0375 79.4772C59.0262 82.5365 59.6614 83.1658 62.5321 83.7507C63.8417 84.0176 65.0412 83.7753 66.3004 83.714C67.6514 83.6483 68.7394 83.2795 69.2443 81.9043C69.8139 80.3529 69.6194 78.8466 68.5786 77.5394C65.989 74.2872 60.6146 75.2144 59.0375 79.4772ZM44.9824 79.5421C44.4949 79.4947 43.8603 79.0745 43.765 80.0542C43.8604 80.1738 43.9319 80.3493 44.0155 80.3561C47.844 80.6661 51.6778 80.4935 55.5097 80.4663C56.0511 80.4624 56.4519 80.179 56.1749 79.2732C52.5712 80.2092 48.9179 80.7061 44.9824 79.5421Z" fill="black"/>
<path d="M55.3741 34.2988C54.1876 35.7307 52.9056 36.8397 51.5825 37.8952C50.809 38.5123 49.938 38.9185 49.0426 38.25C46.7847 36.5643 44.5228 34.8532 43.2009 32.1626C41.964 29.645 42.6203 26.4914 44.6099 25.1936C45.3503 24.7106 46.3769 24.0717 47.0088 24.4845C49.7289 26.2617 52.7483 23.2824 55.4037 25.2667C57.241 26.6398 57.9437 29.4706 56.8589 31.9118C56.4979 32.7244 55.9321 33.4344 55.3741 34.2988ZM54.56 30.4697C54.9434 29.3007 54.8357 28.2692 53.7274 27.6176C52.664 26.9925 51.8615 27.5156 51.1849 28.3989C50.448 29.3607 49.6779 29.4255 48.8915 28.482C48.0279 27.446 46.9597 26.8088 45.8963 27.8851C44.8859 28.9076 45.142 30.3216 45.8484 31.4629C46.7604 32.9363 48.1009 34.0012 49.3609 35.1306C49.8863 35.6016 50.3378 35.5324 50.8046 35.0498C52.1108 33.6993 53.6325 32.5552 54.56 30.4697Z" fill="black"/>
<path d="M50.9262 62.4858C53.8731 63.6288 54.2908 65.6777 52.0873 67.7058C51.5406 68.209 50.9467 68.6777 51.4564 69.4541C52.0309 70.3293 52.856 70.1366 53.5554 69.5894C54.1845 69.0972 54.8128 68.1744 55.5325 69.1704C56.2329 70.1398 55.553 70.9999 54.8435 71.691C54.6216 71.907 54.3451 72.2052 54.0876 72.212C51.2674 72.2874 48.433 72.8173 45.635 72.1051C45.1607 71.9844 44.7407 71.4385 44.3895 71.0036C43.9795 70.4958 43.7022 69.8606 44.2256 69.2508C44.74 68.6516 45.3217 68.8136 45.8614 69.2552C46.2969 69.6115 46.697 70.021 47.3085 70.0032C47.8286 69.9881 48.287 69.8528 48.5421 69.3293C48.8169 68.7656 48.6269 68.3116 48.1547 67.9967C46.7394 67.0525 45.9724 65.7752 46.8207 64.0723C47.6478 62.412 49.1586 62.1588 50.9262 62.4858Z" fill="black"/>
<path d="M56.3726 57.8918C58.1452 58.0214 59.0585 58.9254 58.8307 60.6751C58.6796 61.836 57.9971 62.7345 56.7548 62.7782C55.5316 62.8213 54.7596 62.0649 54.5451 60.8632C54.2897 59.4327 54.716 58.2838 56.3726 57.8918Z" fill="black"/>
<path d="M42.2086 58.0425C44.4833 57.8891 45.6789 59.0357 45.2497 60.7932C44.9791 61.9011 44.3047 62.6333 43.2142 62.7607C42.1713 62.8825 41.4383 62.3129 41.0704 61.2989C40.5884 59.9699 40.9121 58.8793 42.2086 58.0425Z" fill="black"/>

  </g>
</svg>
