<svg width="100" height="100" viewBox="0 0 100 100" fill="none" xmlns="http://www.w3.org/2000/svg">
  <g transform="translate(-4.285714 -4.285714) scale(1.085714)">

<path d="M15.014 51.8937C15.0169 44.6087 15.0639 37.5635 15.0072 30.5196C14.9723 26.1732 16.3191 23.0985 19.6725 21.6756C20.3362 21.394 20.8147 21.0007 20.9108 20.0854C21.1621 17.6923 22.5036 16.7834 24.1509 16.3005C32.6372 13.8123 40.6832 15.0965 48.1049 21.0098C49.5176 22.1354 50.4551 22.2961 51.9562 21.0871C59.27 15.1962 67.213 13.5903 75.66 16.2292C77.4545 16.7898 79.0819 17.6277 79.2974 20.4151C79.3682 21.3309 80.0128 21.3908 80.5432 21.6494C83.6997 23.1885 84.9824 25.432 84.9874 29.6325C85.0047 44.042 85.0063 58.4515 84.9785 72.8609C84.9685 78.0433 81.7632 81.2143 77.797 79.76C69.4054 76.683 61.5259 77.8692 54.0165 83.5518C51.2983 85.6087 48.466 85.4162 45.7074 83.3446C38.5106 77.9402 30.8652 76.7667 22.8062 79.5676C18.1516 81.1854 15.0572 78.2255 15.0198 72.0671C14.9795 65.4231 15.013 58.7784 15.014 51.8937ZM23.6097 33.8696C23.6102 44.3541 23.6014 54.8386 23.6181 65.3231C23.622 67.7491 24.1165 68.3049 25.8578 67.9192C33.0502 66.3265 39.856 67.7555 46.3231 71.98C46.9663 72.4002 47.5612 73.1396 48.4227 72.8394C48.4802 72.5902 48.5781 72.3638 48.5782 72.1374C48.5843 57.0912 48.5772 42.045 48.5911 26.9989C48.5922 25.7912 48.0878 25.0848 47.3671 24.4826C40.5196 18.7612 33.0561 17.5349 25.1302 19.6003C24.0067 19.8931 23.5696 20.6389 23.5926 22.1046C23.6517 25.8648 23.6108 29.6274 23.6097 33.8696ZM76.43 32.9084C76.4346 29.305 76.4421 25.7016 76.4422 22.0982C76.4422 20.8147 76.3383 19.6249 74.9037 19.84C74.461 20.8312 74.6486 21.8923 74.6437 22.9032C74.6175 28.2681 74.6257 33.6332 74.6285 38.9983C74.629 40.0745 74.5841 41.1367 73.6744 41.6544C72.802 42.1508 72.178 41.4006 71.6767 40.7278C70.3508 38.9484 69.1084 38.7492 67.6605 40.5481C67.0701 41.2818 66.3557 42.2983 65.339 41.6666C64.3427 41.0475 64.5569 39.772 64.5546 38.6776C64.5423 32.832 64.5185 26.9861 64.5642 21.1411C64.5781 19.3596 64.2531 18.7275 62.6862 19.17C59.2299 20.146 56.0682 21.8771 53.0576 24.1844C51.822 25.1314 51.3987 26.3097 51.404 28.1145C51.4449 42.2076 51.4088 56.301 51.4154 70.3943C51.4158 71.3138 51.2524 72.3148 51.8753 73.2161C52.2141 73.0096 52.5582 72.8271 52.8818 72.5986C59.236 68.1128 66.0092 66.4011 73.2428 67.6573C76.4186 68.2088 76.4205 68.1835 76.4214 64.1382C76.4239 53.8884 76.4273 43.6387 76.43 32.9084ZM79.2405 59.343C79.2417 61.5845 79.2737 63.8268 79.237 66.0673C79.1772 69.7109 77.2488 71.8069 74.3947 71.3827C73.1372 71.1958 71.8851 70.9279 70.6238 70.8061C64.1199 70.1778 58.1738 72.3948 52.7037 76.6915C50.7888 78.1955 49.1376 78.2588 47.2529 76.6601C44.4965 74.3222 41.4464 72.7561 38.205 71.7657C34.0699 70.5021 29.9282 70.561 25.7431 71.3062C22.7131 71.8457 21.0263 69.9913 20.8591 66.1549C20.8034 64.8773 20.8217 63.5939 20.8213 62.3132C20.8175 50.9454 20.8264 39.5776 20.799 28.21C20.7967 27.2448 21.1126 26.1175 20.2816 25.2948C18.2742 25.9335 17.8611 27.7785 17.8631 30.0523C17.875 43.8217 17.8592 57.5911 17.8592 71.3605C17.8592 76.1566 18.9541 77.3025 22.5822 76.1462C31.305 73.3662 39.5657 74.619 47.3106 80.5219C49.1899 81.9542 51.041 81.8947 52.8787 80.4716C60.6877 74.4245 69.028 73.4198 77.7866 76.2354C80.9333 77.247 82.1593 76.0197 82.1632 71.8916C82.1709 63.646 82.1601 55.4004 82.163 47.1547C82.165 41.3108 82.1938 35.4667 82.1771 29.6229C82.169 26.787 81.4788 25.8041 79.2406 25.5067C79.2406 36.6432 79.2406 47.7529 79.2405 59.343ZM68.5276 35.7013C69.9366 33.8663 70.8123 36.54 72.1546 36.4674C72.1546 31.0202 72.1562 25.6791 72.1529 20.3381C72.1524 19.5101 71.8459 19.0726 71.1695 18.8603C68.0036 17.8669 67.022 18.7796 67.0287 22.8008C67.0317 24.639 67.0308 26.4772 67.0311 28.3153C67.0314 30.997 67.0311 33.6786 67.0311 36.2121C67.7503 36.5816 68.0073 36.1464 68.5276 35.7013Z" fill="black"/>

  </g>
</svg>
